{"scene":0,"asset":{"generator":"ImageToStl.com","version":"2.0"},"scenes":[{"name":"Scene","nodes":[0]}],"nodes":[{"name":"Node0","children":[1]},{"name":"Node1","mesh":0}],"materials":[{"name":"x1","pbrMetallicRoughness":{"baseColorFactor":[0.85,0.85,0.85,1.0],"metallicFactor":0.05,"roughnessFactor":0.5},"doubleSided":true}],"meshes":[{"name":"Mesh0","primitives":[{"indices":2,"material":0,"attributes":{"POSITION":0,"NORMAL":1}}]}],"accessors":[{"bufferView":0,"componentType":5126,"count":94766,"type":"VEC3","min":[-262.62003,-395.34003,-666.86005],"max":[262.6,396.54,704.34]},{"bufferView":1,"componentType":5126,"count":94766,"type":"VEC3"},{"bufferView":2,"componentType":5125,"count":127302,"type":"SCALAR"}],"bufferViews":[{"target":34962,"buffer":0,"byteLength":1137192,"byteOffset":0},{"target":34962,"buffer":0,"byteLength":1137192,"byteOffset":1137192},{"target":34963,"buffer":0,"byteLength":509208,"byteOffset":2274384}],"buffers":[{"byteLength":2783592,"uri":"data:application/octet-stream;base64,"}]}